# xmcd
#
# Track frame offsets:
#	152
#	14860
#	29775
#
# Disc length: 602 seconds
# Revision: 0
# Processed by: cddbd v1.5.2PL0 Copyright (c) Steve Scherf et al.
# Submitted via: dBpowerAMP V12.0
#
DISCID=27025803
DTITLE=Sister Act feat. Whoopi Goldberg - I Will Follow Him (“Chariot”)
DYEAR=1993
DGENRE=Gospel
TTITLE0=I Will Follow Him (“Chariot”) [Album Version]
TTITLE1=I Will Follow Him (“Chariot”) [Techno 7”]
TTITLE2=I Will Follow Him (“Chariot”) [Dog House Edit]
EXTD=
EXTT0=
EXTT1=
EXTT2=
PLAYORDER=
